# xmcd
#
# Track frame offsets: 
#        150
#        14562
#        28570
#        38949
#        51627
#        64639
#        76564
#        88705
#        102797
#        116227
#        131350
#        145811
#        160516
#        174810
#        188442
#        202541
#        217420
#        231414
#        245255
#        259681
#        274518
#        288867
#        301949
#        317030
#        330481
#        343235
#
# Disc length: 4776 seconds
#
# Revision: 0
# Processed by: cddbd v1.5.2PL0 Copyright (c) Steve Scherf et al.
# Submitted via: ExactAudioCopy v0.99pb3
#
DISCID=6312a61a
DTITLE=Blind Willie McTell - Searching The Desert For The Blues
DYEAR=2009
DGENRE=Blues
TTITLE0=Stole Rider Blues
TTITLE1=Mama, Tain't Long Fo' Day
TTITLE2=Mr. McTell Got The Blues (take 2)
TTITLE3=Three Women Blues
TTITLE4=Dark Night Blues
TTITLE5=Statesboro Blues
TTITLE6=Loving Talking Blues
TTITLE7=Come On Around To My House Mama
TTITLE8=Kind Mama
TTITLE9=Drive Away Blues
TTITLE10=Talkin' To Myself
TTITLE11=Southern Can Is Mine
TTITLE12=Broke Down Engine Blues
TTITLE13=Painful Blues
TTITLE14=Scarey Day Blues
TTITLE15=Low Rider's Blues
TTITLE16=Georgia Rag
TTITLE17=Rollin' Mama Blues
TTITLE18=Lonesome Day Blues
TTITLE19=Mama Let Me Scoop For You
TTITLE20=Searching The Desert For The Blues
TTITLE21=Warm It Up To Me
TTITLE22=Savannah Mama
TTITLE23=Love-Makin' Mama
TTITLE24=Lord, Send Me An Angel
TTITLE25=Lay Some Flowers On My Grave
EXTD=
EXTT0=
EXTT1=
EXTT2=
EXTT3=
EXTT4=
EXTT5=
EXTT6=
EXTT7=
EXTT8=
EXTT9=
EXTT10=
EXTT11=
EXTT12=
EXTT13=
EXTT14=
EXTT15=
EXTT16=
EXTT17=
EXTT18=
EXTT19=
EXTT20=
EXTT21=
EXTT22=
EXTT23=
EXTT24=
EXTT25=
PLAYORDER=
